<?xml version="1.0" standalone="no"?>
<!DOCTYPE svg PUBLIC "-//W3C//DTD SVG 20010904//EN"
 "http://www.w3.org/TR/2001/REC-SVG-20010904/DTD/svg10.dtd">
<svg version="1.0" xmlns="http://www.w3.org/2000/svg"
 width="124.000000pt" height="65.000000pt" viewBox="0 0 124.000000 65.000000"
 preserveAspectRatio="xMidYMid meet">

<g transform="translate(0.000000,65.000000) scale(0.100000,-0.100000)"
fill="#000000" stroke="none">
<path d="M67 387 c38 -62 99 -137 112 -137 9 0 36 30 61 67 53 80 55 83 41 83
-6 0 -30 -27 -54 -60 -23 -33 -45 -60 -49 -60 -4 0 -26 27 -49 60 -23 33 -48
60 -56 60 -9 0 -11 -5 -6 -13z"/>
<path d="M330 363 c-8 -3 -18 -11 -22 -17 -12 -17 -9 -71 4 -84 15 -15 158
-17 158 -2 0 6 -30 10 -70 10 -92 0 -90 18 3 22 68 3 72 4 75 27 3 15 -3 30
-14 38 -18 13 -105 17 -134 6z m120 -28 c11 -13 4 -15 -54 -15 -61 0 -77 6
-59 23 13 14 100 7 113 -8z"/>
<path d="M526 357 c-13 -10 -17 -24 -14 -57 l3 -45 90 -1 90 -1 -73 6 c-85 8
-105 26 -86 75 5 13 22 16 80 16 43 0 74 4 74 10 0 15 -143 13 -164 -3z"/>
<path d="M738 359 c-13 -7 -18 -23 -18 -54 0 -53 11 -58 105 -53 l60 3 3 45
c3 33 -1 47 -14 57 -21 15 -112 17 -136 2z m130 -51 c3 -35 1 -37 -32 -43 -53
-10 -90 6 -94 40 -5 36 12 46 73 43 50 -3 50 -3 53 -40z"/>
<path d="M920 365 c0 -17 57 -115 67 -115 7 0 23 18 35 40 13 22 26 40 29 40
3 0 14 -18 24 -40 10 -22 24 -40 31 -40 8 0 24 19 36 43 35 65 39 77 25 77 -7
0 -23 -21 -36 -47 l-23 -47 -26 47 c-14 26 -29 47 -33 47 -4 0 -19 -21 -34
-47 l-28 -46 -24 46 c-13 26 -28 47 -33 47 -6 0 -10 -2 -10 -5z"/>
</g>
</svg>
