<svg xmlns="http://www.w3.org/2000/svg" version="1.1" xmlns:xlink="http://www.w3.org/1999/xlink" width="512" height="512" x="0" y="0" viewBox="0 0 64 64" style="enable-background:new 0 0 512 512" xml:space="preserve" class=""><g transform="matrix(0.8999999999999998,0,0,0.8999999999999998,3.2000000476837407,3.20004444122317)"><path d="M59.895 36.338A31.922 31.922 0 0 0 32 20.357 31.922 31.922 0 0 0 4.105 36.338a1.001 1.001 0 0 0 0 .895A31.922 31.922 0 0 0 32 53.214a31.922 31.922 0 0 0 27.895-15.981 1.001 1.001 0 0 0 0-.895zM32 51.214A29.925 29.925 0 0 1 6.144 36.786 29.925 29.925 0 0 1 32 22.356a29.925 29.925 0 0 1 25.856 14.43A29.925 29.925 0 0 1 32 51.214z" fill="#f1f1f1" opacity="1" data-original="#000000" class=""></path><path d="M32 30.786a6 6 0 1 0 6 6 6.007 6.007 0 0 0-6-6zm0 10a4 4 0 1 1 4-4 4.004 4.004 0 0 1-4 4z" fill="#f1f1f1" opacity="1" data-original="#000000" class=""></path><path d="M32 24.786a12 12 0 1 0 12 12 12.013 12.013 0 0 0-12-12zm0 22a10 10 0 1 1 10-10 10.011 10.011 0 0 1-10 10zM32 17.786a1 1 0 0 0 1-1v-5a1 1 0 0 0-2 0v5a1 1 0 0 0 1 1zM14.2 20.386a1 1 0 1 0 1.6-1.2l-3-4a1 1 0 0 0-1.6 1.2zM48.999 20.786a.998.998 0 0 0 .8-.4l3-4a1 1 0 0 0-1.599-1.2l-3 4a1.006 1.006 0 0 0 .799 1.6z" fill="#f1f1f1" opacity="1" data-original="#000000" class=""></path></g></svg>