<svg xmlns="http://www.w3.org/2000/svg" width="1200" height="596.082" viewBox="0 0 1200 596.082">
  <g id="Dfi-logo.svg" transform="translate(-1 -3)">
    <path id="Path_130" data-name="Path 130" d="M1,599c0-41.354,0-82.708.445-124.37,16.023-.308,31.6-.308,47.237-.308V128H1C1,86.646,1,45.292,1.469,3.469q145.075-.2,289.21.729c10.2.071,20.519,2.3,30.557,4.539,24.906,5.553,48.147,15.57,70.571,27.61,16.381,8.8,32.064,18.724,45.943,31.063a244.952,244.952,0,0,1,53.642,68.532,308.563,308.563,0,0,1,31.814,91.837,351.118,351.118,0,0,1,5.73,59.861c.036,9.6-.464,19.216-.976,28.812-.5,9.379-.684,18.843-2.151,28.088q-3.683,23.214-8.878,46.182A282.754,282.754,0,0,1,481.6,477.531c-14.387,23.34-31.814,44.263-53.227,61.771A257.034,257.034,0,0,1,383.9,568.97c-22.487,11.647-46.1,20.314-71.216,24.069-16.868,2.522-33.88,5.585-50.846,5.7C174.9,599.307,87.947,599,1,599M203.515,474c20.6-.333,41.2-.706,61.8-.984,14.089-.19,27.237-4.285,39.56-10.555,31.719-16.138,54.549-41.283,71.07-72.4,13-24.492,19.861-50.868,21.907-78.376a185.92,185.92,0,0,0-3.093-50.878c-3.736-18.361-9.569-36.243-19.724-52.065a247.048,247.048,0,0,0-25.176-32.555c-9.62-10.576-21.316-18.884-33.934-25.912-21.4-11.916-44.056-19.415-68.588-20.177-16.812-.522-33.654-.1-50.483-.1h-5.538V474Z" fill="#009ca6"/>
    <path id="Path_132" data-name="Path 132" d="M1201,596.531c-78.45.469-156.89.469-235.668.469V474.1h46.308V130.207H965.411V3H1200.53c.47,41.354.47,82.708,0,124.531-14.71.469-28.96.469-43.21.469V474H1201Z" fill="#009ca6"/>
    <path id="Path_136" data-name="Path 136" d="M749,359H705.307V473.791h57.37V596.58H522.346V475.107H569.64V130.153H524.382V3.3H937.588V193.665h-126.5V128.349H705.27v95.516H836.713V359Z" fill="#009ca6"/>
  </g>
</svg>
