<svg xmlns="http://www.w3.org/2000/svg" width="1238" height="187" viewBox="0 0 1238 187">
  <g id="vecow_png" transform="translate(-1 -1)">
    <path id="Path_734" data-name="Path 734" d="M327.467,188c-7.224-1.335-14.064-2.35-20.722-4.07-14.808-3.823-28.069-10.421-35.58-24.547a40.848,40.848,0,0,1-4.936-17.025c-.633-17.474.127-35-.33-52.48-.452-17.329,7.56-29.457,21.93-37.756,10.073-5.818,21.18-8.741,32.785-10.2,28.638-3.594,57.379-1.746,86.06-1.705,16.732.024,33.059,3.752,47.108,13.793,8.827,6.309,14.265,14.7,14.228,26.008-.043,13.164,0,26.329-.015,39.493C467.985,127.5,464.538,131,456.719,131q-74.238,0-148.476,0h-5.475c-.473,16.736,16.273,24.765,29.971,24.883q57.987.5,115.978-.057c7.707-.075,14.406,6.795,14.583,14.445.209,9.017-3.955,13.686-11.291,17.346a185.014,185.014,0,0,1-20.734-.009c-29.206-.462-57.749-.538-86.293-.56-.661,0-1.321.621-1.982.952H327.467m-14.8-113.008c-12.087,4.262-12.825,9.12-10.987,24.633H434c0-2.7-.08-5.032.014-7.356.469-11.611-.968-14.4-13.909-17.09a239.751,239.751,0,0,0-38.817-4.95c-15.552-.639-31.193.092-46.758.929C327.465,71.539,320.49,73.6,312.664,74.992Z" fill="#115fad"/>
    <path id="Path_735" data-name="Path 735" d="M1239,57.539c-.9,1.551-2.03,2.522-2.67,3.751-9.14,17.821-18.16,35.7-27.31,53.517q-15.285,29.756-30.73,59.424c-5.01,9.619-16.04,11.731-26.04,10.462-10.07-1.276-14.57-8.676-18.74-16.628q-14.49-27.673-29.16-55.248c-3.81-7.172-7.8-14.25-12.13-22.139-4.52,8.218-8.88,16.051-13.14,23.939-11.05,20.447-21.98,40.962-33.14,61.346a15.831,15.831,0,0,1-11.68,8.249c-8.28,1.278-16.78,2.519-23.98-3.27a27,27,0,0,1-7.04-8.513q-28.066-55.641-55.756-111.475a25.073,25.073,0,0,1-2.4-6.34c-1.488-7.877,1.068-11.946,9.451-13.581a54.032,54.032,0,0,1,14.562-.361c9.442.772,11.991,9.089,15.524,15.709,8.738,16.373,16.927,33.039,25.377,49.564q7.23,14.13,14.61,28.179A39.9,39.9,0,0,0,1027,137.6c4.88-8.938,9.46-17.3,14.01-25.675,10.69-19.721,21.23-39.524,32.09-59.148,4.7-8.491,12.86-10.284,21.85-9.795,7.9.43,13.41,4.379,17.08,11.212q14.085,26.207,28.2,52.4c4.79,8.875,9.59,17.741,14.47,26.561,1.63,2.941,3.14,4.375,5.34.018,12.25-24.269,24.69-48.44,37.1-72.627,2.23-4.338,4.52-8.647,6.95-12.872A13.741,13.741,0,0,1,1215,40.529c8.33-.832,16.86-2.2,23.67,5.38C1239,49.693,1239,53.386,1239,57.539Z" fill="#115fad"/>
    <path id="Path_736" data-name="Path 736" d="M783.469,188c-1.473-.666-2.415-1.78-3.491-1.93-13.988-1.947-27.4-5.518-38.938-14.093-9.312-6.916-14.764-16.231-14.959-27.9-.306-18.321.215-36.657-.167-54.975-.359-17.213,8.049-28.745,22.351-36.743C762.37,44.469,777.6,41,793.766,40.94c17.757-.069,35.519-1.074,53.265-.8,14.874.233,29.916.407,44.325,4.918,14.9,4.665,27.3,12.453,31.86,28.667a40.9,40.9,0,0,1,1.706,10.546c.165,18.991-.168,37.989.151,56.976.289,17.222-8.1,28.817-22.633,36.562-12.471,6.645-25.987,9.335-40.25,9.8-26.211.389-52.232.389-78.721.389M761,114.5c0,7.5.392,15.017-.1,22.481-.593,8.98,4.736,14.2,11.635,15.882,7.859,1.917,15.946,3.745,23.977,3.954,20.974.544,41.992.718,62.949-.1,7.7-.3,15.42-3.366,22.851-5.97,5.05-1.769,6.953-5.985,6.827-11.763-.381-17.482-.218-34.978-.082-52.467.034-4.434-1.633-7.3-5.392-9.66-7.217-4.531-15.327-5.579-23.368-5.724q-32.721-.592-65.458-.02a55.123,55.123,0,0,0-25.811,6.373c-5.1,2.79-8.126,6.916-8.05,13.025C761.073,98.174,761,105.838,761,114.5Z" fill="#115fad"/>
    <path id="Path_737" data-name="Path 737" d="M551.469,188c-8.139-1.666-15.913-2.963-23.46-5.074-17.462-4.884-31.388-18.4-31.075-38.856.3-19.822.255-39.655.012-59.479C496.71,65.393,507.628,53,523.518,47a98.109,98.109,0,0,1,34.515-6.035c42.749-.237,85.5-.656,128.247-.913a67.931,67.931,0,0,1,10.748,1.084,7.97,7.97,0,0,1,3.382,1.854c4.086,3.257,6.259,13.157,4.227,18.844-2.129,5.959-6.788,9.135-13.63,9.158-10.663.037-21.326.01-31.989.01-32.823,0-65.647-.146-98.468.134a70.58,70.58,0,0,0-17.736,2.958C534.448,76.381,532,80.156,532,88.656c0,15.661.436,31.34-.13,46.98-.5,13.878,5.783,16.309,15.323,19.142,5.706,1.694,11.957,2.106,17.968,2.131,41.153.173,82.308.312,123.459-.015,17.07-.136,19.564,13.274,16.064,23.294-.976,2.793-4.38,4.737-6.677,7.441C649.312,188,600.625,188,551.469,188Z" fill="#115fad"/>
    <path id="Path_739" data-name="Path 739" d="M23.546,1C28.665,2.892,34.194,3.052,37.39,7.873c1.708,2.576,3.628,5.01,5.39,7.551,17.764,25.624,35.449,51.3,53.294,76.871,12.188,17.463,24.594,34.775,36.918,52.143.168.237.549.322,1.348.765,4.548-6.552,9.116-13.169,13.721-19.76Q180.591,78.9,213.125,32.351c5.759-8.253,11.34-16.631,17.087-24.894,3-4.31,7.641-5.294,12.634-6.092a83.475,83.475,0,0,1,9.7-.365,36.83,36.83,0,0,1,6.335,1.433c9.529,3.735,10.538,11.66,4.295,20.753C251.306,40.475,238.993,57.459,226.91,74.6q-28.515,40.459-56.959,80.967c-5.132,7.31-9.891,14.9-15.287,22-3.807,5.014-8.8,8.8-15.525,10.072a66.52,66.52,0,0,1-11.8.012c-8.055-2.646-12.935-8.074-17.212-14.2-10.608-15.193-21.132-30.444-31.8-45.6Q49.681,87.173,20.893,46.583C14.339,37.334,7.635,28.191,1,19c0-4.024,0-8.049.374-12.543C5.832,4.326,9.916,2.663,14,1Z" fill="#115fad"/>
    <path id="Path_741" data-name="Path 741" d="M343.469,188a2.094,2.094,0,0,1,1.513-.952c28.544.022,57.087.1,85.825.56C401.979,188,372.958,188,343.469,188Z" fill="#fff"/>
    <path id="Path_742" data-name="Path 742" d="M13.523,1C9.916,2.663,5.832,4.326,1.374,5.994A21.9,21.9,0,0,1,1,1Z" fill="#fff"/>
  </g>
</svg>
