<svg width="583" height="130" viewBox="0 0 583 130" fill="none" xmlns="http://www.w3.org/2000/svg">
<path d="M0.98 2.05924C0.0466667 3.12591 -0.22 4.99257 0.18 6.19257C1.11333 8.72591 46.98 74.0592 50.7133 78.3259C52.58 80.4592 54.98 81.3926 58.3133 81.3926C61.6467 81.3926 64.0467 80.4592 65.9133 78.3259C70.58 73.2592 116.98 6.45924 116.98 4.85924C116.98 0.325907 107.647 -1.67409 103.38 1.65924C102.313 2.59257 92.18 16.5926 80.98 32.7259C69.78 48.8592 60.0467 62.5926 59.5133 63.2592C58.0467 64.8592 59.2467 66.3259 34.8467 31.3926C24.0467 15.9259 14.3133 2.59257 13.2467 1.65924C10.3133 -0.607426 2.98 -0.340759 0.98 2.05924Z" fill="#0F61AD"/>
<path d="M137.913 18.8599C130.579 20.5932 125.779 23.3932 121.779 28.0599C118.446 32.0599 118.312 32.8599 118.312 49.1266C118.312 69.2599 119.913 73.1266 130.046 77.7932C135.913 80.5932 138.179 80.7266 169.646 80.7266H202.846L204.179 77.1266C206.713 69.9266 204.846 69.3932 174.979 69.3932C160.179 69.3932 146.179 68.9932 143.779 68.5932C138.713 67.5266 132.979 62.4599 132.979 58.7266C132.979 56.0599 133.646 56.0599 169.646 56.0599H206.313V42.9932C206.313 28.0599 205.246 25.6599 196.579 20.9932C191.379 18.3266 188.979 18.0599 166.979 17.7932C153.779 17.6599 140.713 18.0599 137.913 18.8599ZM189.379 32.4599C192.179 34.1932 192.979 35.9266 192.979 39.3932V44.0599H162.979H132.979V39.5266C132.979 30.9932 138.179 29.3932 165.113 29.7932C182.179 30.0599 186.579 30.5932 189.379 32.4599Z" fill="#0F61AD"/>
<path d="M236.447 19.2599C232.713 20.3266 228.313 22.7266 225.78 25.2599L221.647 29.3932L221.247 47.7932C220.713 68.9932 222.18 73.2599 231.113 77.9266C236.047 80.5932 238.58 80.7266 274.313 80.7266H312.313L312.713 76.9932C313.647 69.5266 312.98 69.3932 277.513 69.3932C246.047 69.3932 238.98 68.5932 236.713 64.9932C236.18 64.0599 235.647 56.5932 235.647 48.3266V33.2599L240.313 31.2599C243.913 29.7932 252.047 29.3932 277.38 29.3932C311.38 29.3932 312.98 29.1266 312.98 23.3932C312.98 21.7932 312.313 19.9266 311.38 18.9932C309.113 16.7266 245.38 16.9932 236.447 19.2599Z" fill="#0F61AD"/>
<path d="M343.248 18.7266C336.448 20.4599 331.648 23.1266 327.648 27.3932C324.448 30.7266 324.314 31.9266 323.914 48.4599C323.514 69.3932 324.848 72.9932 335.381 77.7932C341.114 80.4599 343.781 80.7266 368.314 80.7266C394.314 80.7266 395.114 80.5932 400.981 77.3932C410.448 72.1932 411.914 68.0599 411.381 48.0599C410.981 33.2599 410.581 30.8599 408.048 27.2599C402.714 19.7932 396.581 18.1932 370.981 17.9266C358.581 17.6599 346.048 18.0599 343.248 18.7266ZM391.648 31.7932L396.314 34.0599V49.3932V64.7266L391.648 66.9932C385.381 70.1932 350.181 70.4599 342.981 67.5266L338.314 65.5266V50.3266C338.314 39.6599 338.848 34.5932 340.048 33.6599C343.514 30.8599 351.648 29.6599 368.981 29.5266C383.648 29.3932 387.914 29.7932 391.648 31.7932Z" fill="#0F61AD"/>
<path d="M422.18 19.5269C420.713 21.3936 422.447 25.5269 434.313 48.9936C441.913 64.0602 448.98 77.1269 450.047 78.1936C452.314 80.5936 461.513 80.5936 463.913 78.1936C464.98 77.2602 470.18 67.9269 475.647 57.6602C481.114 47.2602 486.18 38.8602 486.714 39.1269C487.38 39.2602 492.18 47.6602 497.38 57.5269C502.714 67.5269 507.78 76.7269 508.847 77.9269C511.647 81.2602 520.314 80.7269 523.247 76.9936C524.58 75.2602 531.647 62.0602 538.98 47.7936C550.58 25.1269 552.047 21.5269 550.447 19.5269C548.18 16.7269 540.447 16.7269 538.18 19.5269C537.114 20.8602 531.78 30.8602 526.047 41.9269L515.914 62.0602L513.647 58.0602C512.447 55.7936 507.38 46.5936 502.447 37.3936C492.847 19.9269 490.314 17.3936 483.38 19.1269C480.713 19.7936 477.78 24.3269 468.98 40.7269C462.713 52.0602 457.38 60.8602 456.847 60.3269C456.313 59.7936 451.247 50.3269 445.514 39.3936C439.78 28.3269 434.58 18.9936 433.78 18.4602C431.247 16.5936 424.047 17.3936 422.18 19.5269Z" fill="#0F61AD"/>
<path d="M123.78 107.527C119.914 110.194 120.314 112.461 125.114 117.927C130.18 123.661 129.914 127.394 124.314 127.394C121.247 127.394 120.314 126.727 119.647 124.061L118.847 120.727L117.914 124.061C117.38 125.927 116.98 127.794 116.98 128.194C116.98 128.594 119.647 128.994 122.847 129.261C132.98 129.661 136.047 123.527 128.98 116.727C124.847 112.727 123.78 108.727 126.714 107.661C129.114 106.861 132.98 109.127 132.98 111.527C132.98 112.594 133.647 113.127 134.314 112.727C135.114 112.327 135.647 110.594 135.647 108.994C135.647 106.594 134.847 106.061 131.114 105.794C128.58 105.661 125.38 106.461 123.78 107.527Z" fill="#0F61AD"/>
<path d="M257.648 112.326C254.714 116.193 250.314 121.659 247.781 124.326L243.381 129.393H246.848C249.114 129.393 250.181 128.859 249.648 127.926C248.448 126.059 252.848 121.393 255.914 121.393C258.714 121.393 259.381 127.393 256.714 128.459C255.781 128.859 257.381 129.259 260.314 129.259C263.914 129.259 264.981 128.993 263.781 128.193C262.314 127.259 262.181 124.726 262.848 116.193C263.381 110.193 263.648 105.393 263.381 105.393C263.114 105.393 260.448 108.593 257.648 112.326ZM259.648 117.393C259.648 119.126 258.714 120.059 256.981 120.059C254.581 120.059 254.448 119.793 255.914 117.393C256.848 115.926 258.048 114.726 258.581 114.726C259.248 114.726 259.648 115.926 259.648 117.393Z" fill="#0F61AD"/>
<path d="M335.114 107.927C332.047 111.26 332.447 113.127 337.114 118.327C342.047 124.06 341.781 127.394 336.314 127.394C333.247 127.394 332.181 126.727 331.514 124.06C330.714 120.594 330.314 120.994 328.447 127.127C327.647 129.927 339.381 130.06 342.581 127.26C345.914 124.194 345.647 122.194 340.981 116.994C335.914 111.26 335.781 108.06 340.447 108.06C342.847 108.06 344.181 108.86 344.714 110.994C345.381 113.794 345.514 113.794 346.447 111.26C348.181 106.727 347.781 106.06 342.447 105.794C338.981 105.527 336.581 106.194 335.114 107.927Z" fill="#0F61AD"/>
<path d="M371.113 107.259C371.513 108.326 370.579 113.126 369.113 118.059C367.513 122.993 366.312 127.526 366.312 128.193C366.312 130.059 369.779 129.526 371.646 127.393C373.113 125.659 372.979 125.526 371.246 126.193C369.246 126.859 369.246 126.326 371.513 119.793C375.913 106.993 376.046 105.393 373.113 105.393C371.379 105.393 370.713 106.059 371.113 107.259Z" fill="#0F61AD"/>
<path d="M468.713 106.859C465.113 108.859 465.78 112.993 470.447 118.859C473.78 123.126 474.313 124.459 472.98 126.059C472.047 127.126 470.313 128.059 468.98 128.059C466.047 128.059 463.113 124.726 464.313 122.726C464.713 122.059 464.447 121.393 463.78 121.393C462.98 121.393 462.313 122.193 462.313 123.259C462.313 124.326 462.047 126.059 461.647 127.126C460.98 128.459 462.313 128.993 467.113 129.126C470.58 129.259 474.18 128.726 475.113 127.926C478.313 125.393 477.247 119.793 472.847 115.259C468.313 110.593 468.58 108.059 473.78 108.059C475.913 108.059 477.513 109.126 478.313 110.993C479.113 113.126 479.513 113.393 479.513 111.793C479.647 110.593 479.913 108.859 480.313 107.793C481.113 105.659 472.18 104.859 468.713 106.859Z" fill="#0F61AD"/>
<path d="M273.914 107.793C276.047 109.126 271.114 125.126 267.914 127.659C266.18 129.126 266.58 129.393 270.58 129.393C274.714 129.393 275.247 128.993 274.714 126.859C274.047 124.059 277.647 111.259 280.047 108.326C280.98 107.126 280.18 106.726 276.847 106.726C274.047 106.726 272.98 107.126 273.914 107.793Z" fill="#0F61AD"/>
<path d="M303.246 107.659C302.713 108.059 302.313 109.393 302.313 110.593C302.446 112.459 302.58 112.326 303.78 110.326C305.246 107.793 310.98 107.126 310.046 109.659C309.646 110.593 308.313 114.726 306.98 118.726C305.78 122.726 303.78 126.859 302.58 127.659C300.846 129.126 301.38 129.393 306.446 129.393C310.846 129.259 311.78 128.993 310.18 128.059C308.18 126.859 308.18 125.926 310.846 117.393C313.246 109.526 314.046 108.059 316.313 108.459C317.78 108.593 318.846 109.526 318.713 110.459C318.046 113.259 320.58 112.193 321.38 109.393C322.046 106.859 321.38 106.726 313.113 106.726C308.18 106.726 303.646 107.126 303.246 107.659Z" fill="#0F61AD"/>
<path d="M411.113 107.66C409.646 109.127 410.313 110.727 412.313 110.727C413.379 110.727 414.313 110.193 414.313 109.527C414.313 107.793 412.179 106.593 411.113 107.66Z" fill="#0F61AD"/>
<path d="M533.781 107.66C532.314 109.127 532.981 110.727 534.981 110.727C536.047 110.727 536.981 110.193 536.981 109.527C536.981 107.793 534.847 106.593 533.781 107.66Z" fill="#0F61AD"/>
<path d="M200.314 112.059C198.98 113.526 197.78 116.059 197.647 117.793C197.38 119.393 196.847 122.726 196.314 124.993C195.514 128.459 195.78 129.393 197.38 129.393C198.447 129.393 200.047 128.459 200.98 127.393C202.447 125.659 202.314 125.526 200.58 126.193C198.58 126.859 198.58 126.459 199.78 122.593C200.714 120.059 202.18 117.393 203.247 116.459C204.447 115.526 204.58 114.726 203.78 114.193C202.98 113.659 202.714 112.459 203.247 111.393C204.18 108.593 203.114 108.859 200.314 112.059Z" fill="#0F61AD"/>
<path d="M399.379 112.726C397.379 114.46 396.312 116.06 397.112 116.326C398.046 116.593 398.046 117.926 397.112 120.46C394.179 128.06 396.712 132.46 400.979 127.393C402.446 125.66 402.312 125.526 400.312 126.326C398.312 126.993 398.046 126.726 398.712 124.86C399.246 123.526 400.046 120.993 400.446 119.26C400.846 117.526 402.179 116.06 403.379 116.06C404.979 116.06 405.112 115.66 404.046 114.593C403.246 113.793 402.846 112.193 403.246 111.26C404.179 108.726 403.512 108.993 399.379 112.726Z" fill="#0F61AD"/>
<path d="M139.647 114.593C138.58 114.993 137.647 116.859 137.513 118.726C137.513 120.593 136.98 123.659 136.313 125.659C135.78 127.926 135.913 129.393 136.58 129.393C137.38 129.393 138.58 127.793 139.513 125.659C144.18 115.259 149.113 112.993 145.513 122.993C143.247 129.393 143.247 129.393 144.98 129.393C145.647 129.393 147.38 127.126 148.847 124.326C150.313 121.526 152.447 118.326 153.78 117.259C155.913 115.526 156.047 115.659 155.113 118.726C152.713 127.526 152.58 129.393 154.713 129.393C155.78 129.393 157.38 128.459 158.313 127.393C159.513 125.926 159.513 125.393 158.447 125.393C157.513 125.393 157.247 123.659 157.78 120.193C158.713 114.326 157.247 112.593 153.513 115.259C151.38 116.859 150.847 116.859 149.513 114.993C148.18 113.126 147.647 113.126 145.647 114.726C144.18 115.926 143.113 116.059 142.58 115.126C142.047 114.326 140.713 114.059 139.647 114.593Z" fill="#0F61AD"/>
<path d="M165.914 117.528C163.248 120.328 162.314 122.461 162.581 124.994C162.981 128.461 163.514 128.728 169.248 128.861C173.248 128.994 176.181 128.461 177.114 127.261C178.448 125.661 178.314 125.528 176.448 126.194C174.581 126.994 174.448 126.594 176.314 121.394C178.981 113.928 178.981 114.061 174.048 113.928C170.981 113.794 168.714 114.861 165.914 117.528ZM172.981 120.994C170.714 124.994 166.848 127.794 165.514 126.328C164.181 125.128 167.648 117.528 170.181 116.061C173.648 114.194 175.248 116.994 172.981 120.994Z" fill="#0F61AD"/>
<path d="M184.714 114.46C183.514 114.726 182.714 115.66 183.114 116.593C183.381 117.393 182.847 120.726 181.781 123.793C178.981 131.393 182.047 131.393 185.781 123.66C188.714 117.526 188.314 113.66 184.714 114.46Z" fill="#0F61AD"/>
<path d="M190.447 115.26C189.247 116.593 189.38 117.26 190.847 117.793C192.98 118.727 194.313 117.66 194.313 115.127C194.313 112.86 192.447 112.86 190.447 115.26Z" fill="#0F61AD"/>
<path d="M211.379 115.527C207.646 117.527 205.646 121.793 206.579 126.327C207.113 129.66 214.579 130.327 217.113 127.26C218.846 125.127 218.713 125.127 215.913 126.593C213.513 127.927 212.313 127.927 210.846 126.593C208.046 124.327 208.579 123.127 212.846 122.327C218.179 121.26 221.513 117.66 219.513 115.26C217.646 112.993 215.913 112.993 211.379 115.527ZM216.979 116.727C216.979 118.727 211.913 122.06 210.713 120.86C209.779 119.927 214.179 114.727 215.913 114.727C216.446 114.727 216.979 115.66 216.979 116.727Z" fill="#0F61AD"/>
<path d="M226.047 114.461C224.847 114.728 224.047 115.661 224.447 116.594C224.847 117.528 224.314 120.861 223.247 123.794C220.581 131.261 223.381 131.128 227.114 123.661C230.047 117.528 229.647 113.661 226.047 114.461Z" fill="#0F61AD"/>
<path d="M231.781 115.26C230.581 116.593 230.714 117.26 232.181 117.793C234.314 118.727 235.647 117.66 235.647 115.127C235.647 112.86 233.781 112.86 231.781 115.26Z" fill="#0F61AD"/>
<path d="M286.981 114.993C278.981 119.659 279.114 129.393 287.114 129.393C293.781 129.393 299.247 119.926 294.981 115.526C292.447 112.993 290.714 112.859 286.981 114.993ZM292.981 119.259C292.981 123.793 288.581 128.726 285.647 127.659C282.714 126.459 283.914 120.459 287.781 117.126C291.114 114.326 292.981 115.126 292.981 119.259Z" fill="#0F61AD"/>
<path d="M353.646 114.993C345.513 119.659 345.779 129.393 353.913 129.393C361.246 129.393 366.846 117.793 361.113 114.726C357.913 112.993 356.979 113.126 353.646 114.993ZM359.379 118.993C359.913 123.259 355.513 128.859 352.579 127.659C349.646 126.593 349.779 124.326 352.979 118.993C356.046 113.926 358.846 113.926 359.379 118.993Z" fill="#0F61AD"/>
<path d="M378.447 115.26C377.247 116.594 377.247 117.26 378.314 117.66C379.38 117.927 379.38 119.127 378.447 121.794C377.647 123.927 376.98 126.46 376.98 127.527C376.98 130.06 380.847 129.927 383.914 127.127C386.18 125.127 386.314 125.127 386.314 127.127C386.314 130.06 389.514 130.06 391.78 127.127C393.38 125.127 393.38 124.994 391.38 125.794C388.447 126.86 388.58 126.994 390.98 120.194C392.58 115.527 392.58 114.727 390.98 114.727C390.047 114.727 388.714 116.06 388.314 117.66C387.247 120.994 382.447 126.727 380.847 126.727C380.18 126.727 380.58 124.327 381.647 121.26C384.18 114.194 382.314 110.594 378.447 115.26Z" fill="#0F61AD"/>
<path d="M409.114 114.46C406.98 114.727 406.447 115.26 407.514 115.927C408.714 116.727 408.714 117.927 407.647 120.593C404.847 128.06 407.38 132.46 411.647 127.393C413.114 125.66 412.98 125.527 411.247 126.193C409.247 126.86 409.247 126.46 410.98 120.593C412.047 117.127 412.714 114.193 412.58 114.06C412.447 114.06 410.847 114.193 409.114 114.46Z" fill="#0F61AD"/>
<path d="M419.779 116.859C413.512 122.193 414.712 129.393 421.912 129.393C429.246 129.393 434.846 117.793 429.112 114.726C425.379 112.726 424.312 112.993 419.779 116.859ZM427.646 119.659C427.646 125.259 421.379 130.593 419.112 126.859C418.046 125.126 420.712 118.326 423.246 116.459C426.046 114.326 427.646 115.393 427.646 119.659Z" fill="#0F61AD"/>
<path d="M437.114 114.459C434.847 114.859 434.447 115.259 435.647 116.059C437.114 116.993 436.98 118.193 435.38 123.259C433.78 127.926 433.78 129.393 434.98 129.393C435.914 129.393 437.38 127.793 438.18 125.659C440.18 120.993 444.847 115.393 445.78 116.459C446.314 116.859 445.914 119.126 445.114 121.526C444.314 123.926 443.647 126.593 443.647 127.526C443.647 130.059 446.98 129.793 449.114 127.126C450.714 125.126 450.714 124.993 448.847 125.659C446.847 126.459 446.847 125.926 448.047 122.059C448.714 119.659 448.98 116.593 448.447 115.393C447.647 113.259 447.38 113.259 444.447 115.259C442.047 116.726 441.114 116.859 440.714 115.659C440.447 114.859 438.847 114.326 437.114 114.459Z" fill="#0F61AD"/>
<path d="M486.98 114.993C482.713 117.393 480.98 120.459 481.38 124.726C481.647 128.059 482.313 128.859 485.247 129.126C487.247 129.393 490.313 128.593 491.913 127.526C495.38 125.126 494.18 124.726 490.18 126.859C488.18 127.793 486.98 127.793 485.513 126.593C483.113 124.593 483.113 122.726 485.647 122.726C491.513 122.726 497.647 116.726 494.047 114.459C491.78 113.126 490.18 113.126 486.98 114.993ZM492.313 116.059C493.247 117.526 486.58 122.193 485.38 120.859C484.447 119.926 488.713 114.726 490.447 114.726C490.98 114.726 491.78 115.259 492.313 116.059Z" fill="#0F61AD"/>
<path d="M500.98 114.594C499.914 114.994 498.98 116.86 498.847 118.727C498.847 120.594 498.314 123.66 497.647 125.66C496.447 130.194 498.98 130.86 500.447 126.327C500.847 124.727 502.18 122.46 503.114 121.26C505.514 118.594 503.914 113.394 500.98 114.594Z" fill="#0F61AD"/>
<path d="M506.312 115.393C505.246 116.593 505.512 117.259 506.846 117.793C508.046 118.326 509.246 118.059 509.646 117.393C511.779 113.926 514.312 116.326 515.112 122.726C515.646 126.326 516.179 129.393 516.446 129.393C517.379 129.393 522.179 124.326 524.312 120.859C525.646 118.993 526.179 116.459 525.779 115.259C524.712 112.459 522.446 114.059 523.246 117.126C523.512 118.459 522.579 120.993 521.112 122.859L518.446 126.059L518.312 122.059C518.312 119.793 517.779 117.259 517.112 116.193C515.512 113.793 508.046 113.259 506.312 115.393Z" fill="#0F61AD"/>
<path d="M531.114 114.327C529.38 114.727 529.114 115.261 530.18 115.927C531.247 116.727 531.247 118.327 529.647 122.594C527.914 127.527 527.914 128.194 529.78 128.994C530.98 129.394 532.847 128.727 534.047 127.394C536.18 125.127 536.18 125.127 534.047 125.794C531.114 126.861 531.114 126.994 533.647 120.061C536.314 112.461 536.447 112.994 531.114 114.327Z" fill="#0F61AD"/>
<path d="M542.18 117.394C536.847 122.594 537.113 128.461 542.58 129.127C546.18 129.527 552.447 127.127 551.247 125.794C550.847 125.527 549.247 125.927 547.647 126.727C541.247 130.194 539.247 122.194 545.247 116.994C548.58 114.194 550.847 114.061 549.78 116.727C549.38 117.927 549.78 118.727 550.98 118.727C553.647 118.727 553.513 115.261 550.847 114.194C547.38 112.861 546.313 113.261 542.18 117.394Z" fill="#0F61AD"/>
<path d="M560.98 115.128C553.78 118.728 552.713 128.194 559.38 129.128C562.313 129.528 568.313 126.994 567.246 125.794C566.846 125.528 565.38 125.794 564.046 126.461C562.713 127.128 560.846 127.394 560.046 127.128C557.38 126.194 558.046 122.728 560.846 122.728C564.713 122.728 569.513 118.194 568.58 115.661C567.513 112.994 565.513 112.861 560.98 115.128ZM566.313 116.728C566.313 118.861 561.646 121.794 559.513 121.128C558.046 120.594 563.113 114.728 564.98 114.728C565.78 114.728 566.313 115.661 566.313 116.728Z" fill="#0F61AD"/>
<path d="M574.579 114.993C572.312 117.259 572.579 118.459 575.646 122.326C577.112 124.193 578.312 126.326 578.312 126.859C578.312 128.993 573.112 128.059 571.779 125.659C570.579 123.659 570.446 123.793 570.312 126.459C570.312 129.259 570.846 129.526 575.246 129.126C581.379 128.593 582.446 125.393 578.446 119.926C576.446 117.393 576.179 115.926 577.246 115.259C578.046 114.726 579.512 115.393 580.312 116.593C581.779 118.459 582.179 118.459 582.712 116.859C583.246 115.659 582.312 114.726 580.579 114.193C576.579 113.126 576.446 113.126 574.579 114.993Z" fill="#0F61AD"/>
</svg>
