<svg width="250" height="108" viewBox="0 0 250 108" fill="none" xmlns="http://www.w3.org/2000/svg">
<path d="M53.6044 55.5365L47.9177 47.9275V69.4519H53.6044V55.5365ZM30.8576 32.6107H44.7018L39.0419 25.0376L39.015 25.0017H31.7439C34.1582 24.7296 36.3995 23.2153 37.9965 20.7774C39.5936 18.3395 40.4218 15.1679 40.307 11.9296C40.1922 8.69142 39.1434 5.63894 37.3811 3.41421C35.6188 1.18947 33.2803 -0.0341383 30.8576 0.000725045V25.0466L15.2947 4.29482C13.5716 5.48946 11.9469 6.92268 10.4473 8.57095L25.1642 28.1908V71.2845L36.5443 86.4935V75.7403L30.8576 68.1313V32.6107Z" fill="black"/>
<path d="M36.5439 32.6543L36.5171 69.3967H42.1971L42.2239 40.3083L36.5439 32.6543ZM56.0479 47.9172L50.3679 40.3172H42.2306L47.9106 47.9172H56.0479ZM19.4905 64.1234V31.3967L6.42523 13.9238C5.19513 15.9276 4.12199 18.0949 3.22269 20.3919L13.8038 34.5499V45.312L0.966806 28.1357C0.362552 31.1541 0.0268557 34.3343 0 37.6042L19.4905 64.1234ZM0.100709 48.4922V59.2454L36.5439 107.999V97.2454L0.100709 48.4922ZM64.9774 59.8383H59.284V69.4506H53.604C53.5705 71.124 53.7879 72.7893 54.2434 74.3484C54.6988 75.9075 55.3831 77.3287 56.2558 78.5281C57.1285 79.7275 58.172 80.6808 59.3246 81.3317C60.4772 81.9827 61.7156 82.318 62.9666 82.318C64.2177 82.318 65.4561 81.9827 66.6086 81.3317C67.7612 80.6808 68.8047 79.7275 69.6774 78.5281C70.5501 77.3287 71.2344 75.9075 71.6898 74.3484C72.1453 72.7893 72.3627 71.124 72.3292 69.4506L64.9774 59.8383ZM111.277 69.6213L107.013 80.4643H80.4463L97.7213 36.0681H82.427L86.6903 25.2071H113.264L95.9824 69.6213H111.277ZM126.705 47.3243H140.328V58.1943H126.705V69.6213H140.328V80.4733H116.675V25.2071H140.328V36.0681H126.705V47.3243ZM159.362 25.2071C164.626 25.2071 167.66 25.9527 169.889 27.8572C172.736 30.1839 174.468 34.9002 174.468 40.2094C174.468 44.0993 173.542 47.3333 171.682 49.8217C170.507 51.4747 169.581 52.2203 167.351 53.0558C169.889 53.7924 171.004 54.5381 172.306 56.2C174.159 58.5177 175.093 61.7518 175.093 65.8123C175.093 70.9419 173.542 75.4965 170.883 77.904C168.835 79.7277 166.358 80.4733 162.155 80.4733H145.249V25.2071H159.362ZM155.28 48.079H157.751C162.336 48.079 164.256 46.1745 164.256 41.6109C164.256 37.1371 162.336 35.2326 157.63 35.2326H155.28V48.079ZM155.28 70.861H158.932C163.142 70.861 164.934 68.9565 164.934 64.4828C164.934 61.8326 164.196 59.9192 162.705 58.8411C161.591 58.0147 160.604 57.853 157.569 57.853H155.28V70.861ZM189.017 80.4733H178.98V25.2071H192.354C197.799 25.2071 201.76 26.5366 204.486 29.3484C207.34 32.3399 208.944 37.3078 208.944 43.3537C208.944 51.7981 206.286 57.3499 200.955 60.1707L210.059 80.4733H198.048L189.011 59.0927L189.017 80.4733ZM192.24 51.5466C196.322 51.5466 198.8 48.7437 198.8 43.9286C198.8 39.383 196.383 36.2298 192.858 36.2298H189.017V51.5466H192.24ZM239.123 80.4733H250L236.451 25.216H223.695L210.079 80.4643H220.653L223.205 69.6033H236.586L239.123 80.4733ZM225.743 58.7333L229.892 41.0359L234.034 58.7333H225.743Z" fill="black"/>
</svg>
